<svg width="76" height="76" viewBox="0 0 76 76" fill="none" xmlns="http://www.w3.org/2000/svg">
<circle cx="38" cy="38" r="38" fill="white"/>
<path d="M49.3946 51.4763C50.0369 51.788 50.8102 51.5199 51.1219 50.8776C51.4335 50.2353 51.1655 49.462 50.5232 49.1503L49.3946 51.4763ZM46.2711 40.5985C46.8603 40.1954 47.0112 39.3909 46.6081 38.8017C46.2049 38.2124 45.4005 38.0616 44.8113 38.4647L46.2711 40.5985ZM39.5982 45.2862L40.1625 44.1232L39.5982 45.2862ZM11.7073 31.3415V54.6098H14.2927V31.3415H11.7073ZM64.7073 41.6829C64.7073 46.6804 60.656 50.7317 55.6585 50.7317V53.3171C62.0839 53.3171 67.2927 48.1083 67.2927 41.6829H64.7073ZM55.6585 50.7317C50.661 50.7317 46.6098 46.6804 46.6098 41.6829H44.0244C44.0244 48.1083 49.2332 53.3171 55.6585 53.3171V50.7317ZM46.6098 41.6829C46.6098 36.6854 50.661 32.6341 55.6585 32.6341V30.0488C49.2332 30.0488 44.0244 35.2576 44.0244 41.6829H46.6098ZM55.6585 32.6341C60.656 32.6341 64.7073 36.6854 64.7073 41.6829H67.2927C67.2927 35.2576 62.0839 30.0488 55.6585 30.0488V32.6341ZM33.6829 31.3415C33.6829 36.2 29.2002 40.3902 23.3415 40.3902V42.9756C30.3334 42.9756 36.2683 37.9058 36.2683 31.3415H33.6829ZM14.2927 31.3415C14.2927 26.4829 18.7754 22.2927 24.6341 22.2927V19.7073C17.6422 19.7073 11.7073 24.7772 11.7073 31.3415H14.2927ZM24.6341 22.2927C27.5202 22.2927 29.7582 23.3242 31.2783 24.9204C32.8076 26.5263 33.6829 28.7812 33.6829 31.3415H36.2683C36.2683 28.1903 35.1856 25.2745 33.1505 23.1375C31.1062 20.9908 28.1734 19.7073 24.6341 19.7073V22.2927ZM44.8113 38.4647L40.3305 41.5301L41.7903 43.6639L46.2711 40.5985L44.8113 38.4647ZM50.5232 49.1503L40.1625 44.1232L39.0338 46.4492L49.3946 51.4763L50.5232 49.1503ZM40.1625 44.1232L29.8017 39.096L28.6731 41.422L39.0338 46.4492L40.1625 44.1232Z" fill="url(#paint0_linear_20_2)"/>
<defs>
<linearGradient id="paint0_linear_20_2" x1="13" y1="35.6819" x2="155.624" y2="46.169" gradientUnits="userSpaceOnUse">
<stop stop-color="#526DCA" stop-opacity="0.96"/>
<stop offset="1" stop-color="#4E3B84" stop-opacity="0.08"/>
</linearGradient>
</defs>
</svg>
